<?xml version="1.0" standalone="no"?><!DOCTYPE svg PUBLIC "-//W3C//DTD SVG 1.1//EN" "http://www.w3.org/Graphics/SVG/1.1/DTD/svg11.dtd"><svg t="1617351769125" class="icon" viewBox="0 0 1024 1024" version="1.1" xmlns="http://www.w3.org/2000/svg" p-id="7725" xmlns:xlink="http://www.w3.org/1999/xlink" width="200" height="200"><defs><style type="text/css"></style></defs><path d="M735.5 959h-447C165.3 959 65 858.7 65 735.5v-447C65 165.3 165.3 65 288.5 65h447C858.7 65 959 165.3 959 288.5v447C959 858.7 858.7 959 735.5 959z m-447-812.7c-78.4 0-142.2 63.8-142.2 142.2v447c0 78.4 63.8 142.2 142.2 142.2h447c78.4 0 142.2-63.8 142.2-142.2v-447c0-78.4-63.8-142.2-142.2-142.2h-447z" p-id="7726" fill="#F2B102"></path><path d="M688.6 489.4c-12 0-21.8 9.8-21.8 21.8 0 55.7-20.1 68.5-107.3 68.5h-220c-12 0-21.8 9.8-21.8 21.8 0 6.9 3.4 12.8 8.4 16.8l-0.1 0.1 136.8 106.5s26.4 17.2 24.1-13.8l-10.3-87.8h83c79.5 0 150.9-8.6 150.9-112.1-0.1-12.1-9.9-21.8-21.9-21.8z m-340.9 29.5c0-55.7 20.1-68.5 107.3-68.5h220c12 0 21.8-9.8 21.8-21.8 0-6.9-3.4-12.7-8.4-16.7l0.1-0.1-136.7-106.6S525.4 288 527.7 319l10.3 87.8h-83c-79.5 0-150.9 8.6-150.9 112.1 0 12 9.8 21.8 21.8 21.8 12 0.1 21.8-9.7 21.8-21.8z" p-id="7727" fill="#F2B102"></path></svg>