<?xml version="1.0" standalone="no"?><!DOCTYPE svg PUBLIC "-//W3C//DTD SVG 1.1//EN" "http://www.w3.org/Graphics/SVG/1.1/DTD/svg11.dtd"><svg t="1605752603883" class="icon" viewBox="0 0 1024 1024" version="1.1" xmlns="http://www.w3.org/2000/svg" p-id="1613" width="128" height="128" xmlns:xlink="http://www.w3.org/1999/xlink"><defs><style type="text/css"></style></defs><path d="M944.64 85.12L520.32 0h-16.64L79.36 85.12a28.16 28.16 0 0 0-22.4 28.8v369.92c0 281.6 224.64 483.2 448 540.16h11.52c222.08-56.96 448-256 448-540.16V113.92a28.16 28.16 0 0 0-19.84-28.8z m-34.56 398.72c0 247.04-199.04 429.44-398.08 483.2-199.04-53.76-398.08-232.96-398.08-483.2V136.32L512 56.96l398.08 79.36z" p-id="1614" fill="#d81e06"></path><path d="M789.76 670.08l-21.76-19.84-160-156.8a201.6 201.6 0 0 0-45.44-207.36 192 192 0 0 0-139.52-60.16 205.44 205.44 0 0 0-90.88 23.04 28.16 28.16 0 0 0-5.76 45.44l96.64 96.64-33.92 33.92-97.28-96.64A23.68 23.68 0 0 0 272 320a28.16 28.16 0 0 0-25.6 17.28 200.96 200.96 0 0 0 37.12 230.4 192 192 0 0 0 139.52 56.96 170.88 170.88 0 0 0 64-11.52L650.24 768l20.48 19.84a26.88 26.88 0 0 0 39.68 0l79.36-79.36a26.88 26.88 0 0 0 0-38.4z m-96.64 59.52L531.2 576a55.68 55.68 0 0 0-39.68-17.28 64 64 0 0 0-20.48 0 128 128 0 0 1-48 8.96 135.04 135.04 0 0 1-99.84-42.88 139.52 139.52 0 0 1-39.68-128l64 64a56.32 56.32 0 0 0 80 0l33.92-34.56a54.4 54.4 0 0 0 0-79.36l-64-64a70.4 70.4 0 0 1 25.6 0 131.2 131.2 0 0 1 99.2 42.88A142.08 142.08 0 0 1 556.8 473.6a52.48 52.48 0 0 0 14.08 59.52l161.92 156.8z" p-id="1615" fill="#d81e06"></path></svg>